<svg xmlns="http://www.w3.org/2000/svg" xmlns:xlink="http://www.w3.org/1999/xlink" viewBox="0 0 162.92 162.92"><defs><style>.cls-1{fill:#393642;}.cls-2{fill:#fff;}.cls-3{fill:#9733ee;}.cls-4{fill:url(#Degradado_sin_nombre_11);}.cls-5{fill:url(#Degradado_sin_nombre_11-2);}.cls-6{fill:#f4f4f4;}.cls-7{fill:url(#Degradado_sin_nombre_11-3);}.cls-8{fill:url(#Degradado_sin_nombre_11-4);}.cls-9{fill:url(#Degradado_sin_nombre_11-5);}.cls-10{fill:url(#Degradado_sin_nombre_11-6);}</style><linearGradient id="Degradado_sin_nombre_11" x1="68.53" y1="80.07" x2="94.39" y2="80.07" gradientUnits="userSpaceOnUse"><stop offset="0" stop-color="#9733ee"/><stop offset="1" stop-color="#da22ff"/></linearGradient><linearGradient id="Degradado_sin_nombre_11-2" x1="17.96" y1="81.18" x2="55.6" y2="81.18" xlink:href="#Degradado_sin_nombre_11"/><linearGradient id="Degradado_sin_nombre_11-3" x1="107.32" y1="81.18" x2="144.95" y2="81.18" xlink:href="#Degradado_sin_nombre_11"/><linearGradient id="Degradado_sin_nombre_11-4" x1="0" y1="140.98" x2="51.55" y2="140.98" xlink:href="#Degradado_sin_nombre_11"/><linearGradient id="Degradado_sin_nombre_11-5" x1="111.36" y1="140.98" x2="162.92" y2="140.98" xlink:href="#Degradado_sin_nombre_11"/><linearGradient id="Degradado_sin_nombre_11-6" x1="43.38" y1="25.06" x2="119.53" y2="25.06" xlink:href="#Degradado_sin_nombre_11"/></defs><title>Iso_Positivo</title><g id="Capa_2" data-name="Capa 2"><g id="Logo"><path class="cls-1" d="M125.45,64.14h-88c0-4.59,5.63-8.31,12.57-8.31h62.85C119.82,55.84,125.45,59.56,125.45,64.14Z"/><rect class="cls-2" x="42.67" y="93" width="25.86" height="19.4"/><rect class="cls-2" x="94.39" y="93" width="25.86" height="19.4"/><path class="cls-3" d="M42.67,93v19.4H22.45a5.65,5.65,0,0,1-5.65-5.65v-8.1a5.55,5.55,0,0,1,.73-2.77l.43-.66A5.64,5.64,0,0,1,22.45,93Z"/><polygon class="cls-4" points="94.39 93 68.53 93 74.99 67.14 87.92 67.14 94.39 93"/><path class="cls-5" d="M55.6,67.14l-3,6L42.67,93H22.45A5.64,5.64,0,0,0,18,95.22L36.2,67.14Z"/><path class="cls-6" d="M75,67.14,68.53,93H42.67L52.6,73.13l3-6Z"/><path class="cls-3" d="M146.11,98.65v8.1a5.65,5.65,0,0,1-5.65,5.65H120.25V93h20.21A5.64,5.64,0,0,1,145,95.22l.43.66A5.55,5.55,0,0,1,146.11,98.65Z"/><rect class="cls-3" x="68.53" y="93" width="25.86" height="19.4"/><path class="cls-7" d="M145,95.22A5.64,5.64,0,0,0,140.46,93H120.25l-9.94-19.87-3-6h19.4Z"/><path class="cls-6" d="M120.25,93H94.39L87.92,67.14h19.4l3,6Z"/><path class="cls-8" d="M51.55,119l-14,43.87H0l17.89-43.84Z"/><path class="cls-9" d="M111.36,119l14,43.87h37.6L145,119.08Z"/><path class="cls-10" d="M119.53,50.13H89.43q-4-12.53-8-25.06-4,12.53-8,25.06H43.38L62.66,0h37.6Z"/></g></g></svg>