<svg xmlns="http://www.w3.org/2000/svg" viewBox="0 0 170.46 170.46"><defs><style>.cls-1{fill:#fff;}.cls-2{fill:#f2f2f2;}</style></defs><title>Logo_Negativo1</title><g id="Capa_2" data-name="Capa 2"><g id="Logo"><path class="cls-1" d="M131.26,67.11H39.2c0-4.8,5.89-8.69,13.15-8.69h65.76C125.37,58.42,131.26,62.31,131.26,67.11Z"/><path class="cls-2" d="M44.64,97.31V117.6H23.49a5.91,5.91,0,0,1-5.91-5.91v-8.48a5.81,5.81,0,0,1,.76-2.89l.45-.69a5.9,5.9,0,0,1,4.7-2.32Z"/><polygon class="cls-1" points="98.76 97.31 71.7 97.31 78.46 70.25 91.99 70.25 98.76 97.31"/><path class="cls-1" d="M58.17,70.25,55,76.52,44.64,97.31H23.49a5.9,5.9,0,0,0-4.7,2.32L37.88,70.25Z"/><path class="cls-2" d="M152.87,103.21v8.48A5.91,5.91,0,0,1,147,117.6H125.81V97.31H147a5.9,5.9,0,0,1,4.7,2.32l.45.69A5.81,5.81,0,0,1,152.87,103.21Z"/><rect class="cls-2" x="71.7" y="97.31" width="27.06" height="20.29"/><path class="cls-1" d="M151.66,99.63a5.9,5.9,0,0,0-4.7-2.32H125.81L115.42,76.52l-3.13-6.27h20.29Z"/><path class="cls-1" d="M53.94,124.55l-14.6,45.9H0l18.72-45.87Z"/><path class="cls-1" d="M116.51,124.55l14.6,45.9h39.34l-18.72-45.87Z"/><path class="cls-1" d="M125.07,52.45H93.57q-4.16-13.11-8.34-26.22-4.17,13.11-8.34,26.22H45.39L65.56,0H104.9Z"/></g></g></svg>