<svg xmlns="http://www.w3.org/2000/svg" viewBox="0 0 662.08 247.75"><defs><style>.cls-1{fill:#fff;}.cls-2{fill:#f2f2f2;}</style></defs><title>Logo_Hnegativo1</title><g id="Capa_2" data-name="Capa 2"><g id="Logos"><path class="cls-1" d="M190.78,97.54H57c0-7,8.56-12.63,19.11-12.63h95.57C182.22,84.91,190.78,90.57,190.78,97.54Z"/><path class="cls-2" d="M64.88,141.43v29.5H34.14a8.59,8.59,0,0,1-8.59-8.59V150a8.44,8.44,0,0,1,1.1-4.21l.66-1a8.57,8.57,0,0,1,6.83-3.38Z"/><path class="cls-2" d="M222.19,150v12.32a8.59,8.59,0,0,1-8.59,8.59H182.86v-29.5h30.74a8.57,8.57,0,0,1,6.83,3.38l.66,1A8.44,8.44,0,0,1,222.19,150Z"/><rect class="cls-2" x="104.21" y="141.43" width="39.33" height="29.5"/><polygon class="cls-1" points="143.54 141.43 104.21 141.43 114.04 102.1 133.71 102.1 143.54 141.43"/><path class="cls-1" d="M84.55,102.1,80,111.21,64.88,141.43H34.14a8.57,8.57,0,0,0-6.83,3.38l27.74-42.7Z"/><path class="cls-1" d="M220.43,144.81a8.57,8.57,0,0,0-6.83-3.38H182.86l-15.11-30.22-4.56-9.11h29.5Z"/><path class="cls-1" d="M78.4,181,57.17,247.75H0l27.21-66.67Z"/><path class="cls-1" d="M169.35,181l21.23,66.71h57.17l-27.21-66.67Z"/><path class="cls-1" d="M181.78,76.23H136q-6.05-19.06-12.12-38.12-6.07,19.06-12.12,38.12H66L95.29,0h57.17Z"/><path class="cls-1" d="M292.9,99.88l-5.14,15.44h-14l22.39-66.86H314l23.36,66.86h-15L317,99.88Zm21-11.85c-4.68-14.11-7.66-23.13-9.26-29.14h-.1C302.94,65.48,299.64,76,295.89,88Z"/><path class="cls-1" d="M359.78,88.56v26.76H345.85V48.46h29c14.37,0,22.11,8,22.11,18.36,0,9-4.82,13.83-9.58,15.82,3.27,1.22,8.19,4.67,8.19,16.64v3.3c0,4.5,0,9.62.95,12.75H383c-1.16-2.91-1.38-7.91-1.38-15v-1c0-7.31-1.82-10.77-12.45-10.77Zm0-11.51h12c7.81,0,10.82-3,10.82-8.6C382.55,63,379,60,372.08,60H359.78Z"/><path class="cls-1" d="M424.46,48.46V87.74c0,12.65,6.51,16.4,13.62,16.4,8.16,0,13.28-4.43,13.28-16.4V48.46h14.27V87c0,22.54-13.2,28.29-27.74,28.29-14.88,0-27.7-6-27.7-28V48.46Z"/><path class="cls-1" d="M483.47,48.46h28.81c15.93,0,22,8.42,22,17.11,0,7.54-3.94,12.43-8.39,14.5a15.93,15.93,0,0,1,10.28,15.24c0,11.44-8.86,20-22.89,20H483.47Zm27.17,26.37c6.77,0,9.57-3.08,9.57-7.78,0-4.9-3.66-7.43-9.16-7.43H497.46V74.83Zm-13.18,29.32h12.86c7.7,0,11.19-3.27,11.19-9.33,0-5.39-3.43-8.83-11.27-8.83H497.46Z"/><path class="cls-1" d="M595.86,86.48H564.33v17h34.78l-1.69,11.85H550.49V48.46h46.75V60.31H564.33V74.64h31.53Z"/><path class="cls-1" d="M624.93,88.56v26.76H611V48.46h29c14.37,0,22.11,8,22.11,18.36,0,9-4.82,13.83-9.58,15.82,3.27,1.22,8.19,4.67,8.19,16.64v3.3c0,4.5,0,9.62.95,12.75H648.13c-1.16-2.91-1.38-7.91-1.38-15v-1c0-7.31-1.82-10.77-12.45-10.77Zm0-11.51h12c7.81,0,10.82-3,10.82-8.6,0-5.44-3.5-8.48-10.48-8.48H624.93Z"/><path class="cls-1" d="M329.42,174.56c0-11.25.18-23.86.47-31.31h-.46c-3.1,13.45-9.69,35.41-16,56H301.27c-4.81-18-11.63-43.06-14.52-56.22h-.44c.56,7.73.84,21.3.84,32.61v23.61h-13V133.36h21.22c5.14,17.23,10.9,38.84,12.88,48.66h.11c1.61-8.66,8.86-31.77,14.36-48.66h20.45v65.93H329.42Z"/><path class="cls-1" d="M371.24,184.06l-5.14,15.23h-14l22.39-65.93h17.91l23.36,65.93h-15l-5.42-15.23Zm21-11.68c-4.68-13.91-7.66-22.8-9.26-28.73h-.1c-1.63,6.5-4.92,16.84-8.67,28.73Z"/><path class="cls-1" d="M438.13,172.9v26.39H424.2V133.36h29c14.37,0,22.11,7.92,22.11,18.1,0,8.85-4.82,13.64-9.58,15.6,3.27,1.2,8.19,4.6,8.19,16.41v3.25c0,4.43,0,9.48.95,12.57H461.33c-1.16-2.87-1.38-7.8-1.38-14.8v-1c0-7.21-1.82-10.62-12.45-10.62Zm0-11.35h12c7.81,0,10.82-3,10.82-8.48,0-5.36-3.5-8.36-10.48-8.36H438.13Z"/><path class="cls-1" d="M488,133.36h14.09v29.42c4.34-5.08,17.91-19.94,26.25-29.42h17.07l-26.49,27.4,27.46,38.53h-17.1L509,170l-7,6.65v22.64H488Z"/><path class="cls-1" d="M598.66,170.85H567.13V187.6h34.78l-1.69,11.68H553.29V133.36H600V145H567.13v14.13h31.53Z"/><path class="cls-1" d="M627.86,145h-20V133.36h54.26V145h-20v54.25H627.86Z"/></g></g></svg>