<svg xmlns="http://www.w3.org/2000/svg" xmlns:xlink="http://www.w3.org/1999/xlink" viewBox="0 0 240 160.98"><defs><linearGradient id="Degradado_sin_nombre_3" y1="80.49" x2="160.98" y2="80.49" gradientUnits="userSpaceOnUse"><stop offset="0" stop-color="#ae30f2"/><stop offset="1" stop-color="#fc1cff"/></linearGradient></defs><title>Delivery</title><g id="Capa_2" data-name="Capa 2"><g id="Capa_1-2" data-name="Capa 1"><circle cx="80.49" cy="80.49" r="80.49" style="fill:url(#Degradado_sin_nombre_3)"/><path d="M239.91,96.3,229.28,72a1,1,0,0,0-1-.63h-21A23.7,23.7,0,1,0,171.43,49H96a1,1,0,0,0-1.05,1v2.11A1.06,1.06,0,0,0,96,53.25h75.39a23.55,23.55,0,0,0,21.48,21.48v43.13H132.08q-.12-.67-.3-1.38s-.08-.29-.08-.29a13.63,13.63,0,0,0-.79-2.06l-.15-.31a13.44,13.44,0,0,0-1.11-1.81l-.23-.3a13.42,13.42,0,0,0-1.43-1.59l-.26-.23a15,15,0,0,0-1.71-1.32l-.57.89.3-1a13.6,13.6,0,0,0-2-1l-.24-.09a13.62,13.62,0,0,0-2.17-.64l-.22,0a12.85,12.85,0,0,0-5.13,0,13,13,0,0,0-2.23.65l-.24.09a14.81,14.81,0,0,0-2,1l-.27.16a14.2,14.2,0,0,0-1.71,1.32l-.25.23a12.84,12.84,0,0,0-1.44,1.59l-.2.28a12.51,12.51,0,0,0-1.14,1.84s-.14.28-.14.29a13.17,13.17,0,0,0-.8,2.07l-.07.29a13.8,13.8,0,0,0-.3,1.39H96a1.05,1.05,0,0,0-1.06,1V121A1.06,1.06,0,0,0,96,122.09h9.21a13.57,13.57,0,0,0,26.82,0H199a13.57,13.57,0,0,0,26.82,0h13.14A1.06,1.06,0,0,0,240,121V96.72A1.17,1.17,0,0,0,239.91,96.3Zm-121.24,33A9.37,9.37,0,1,1,128,120,9.38,9.38,0,0,1,118.67,129.34Zm56.85-78.2A19.5,19.5,0,1,1,195,70.63,19.53,19.53,0,0,1,175.52,51.14Zm36.87,78.2a9.37,9.37,0,1,1,9.37-9.37A9.37,9.37,0,0,1,212.39,129.34Zm23.39-11.48h-10a11.62,11.62,0,0,0-.3-1.37l-.08-.31a12.94,12.94,0,0,0-.77-2c-.06-.12-.11-.24-.17-.35a13.73,13.73,0,0,0-1.12-1.81l-.22-.3a12.67,12.67,0,0,0-1.43-1.58l-.26-.24a13.65,13.65,0,0,0-1.73-1.33l-.24-.15a15.22,15.22,0,0,0-2-1l-.24-.09a13.52,13.52,0,0,0-2.18-.65l-.22,0a12.93,12.93,0,0,0-5.11,0,13.44,13.44,0,0,0-2.24.66l-.24.09a12.78,12.78,0,0,0-1.95,1l-.3.18a14.87,14.87,0,0,0-1.74,1.35l-.22.2a13.89,13.89,0,0,0-1.42,1.57l-.22.3a13.08,13.08,0,0,0-1.12,1.82l-.16.32a12.88,12.88,0,0,0-.78,2l-.08.31a12.73,12.73,0,0,0-.3,1.38h-1.86V75.59h29.12l9.53,21.58Z"/><path d="M69,66.17h66.78a1.06,1.06,0,0,0,1.06-1.06V63a1.05,1.05,0,0,0-1.06-1H69A1,1,0,0,0,68,63v2.11A1.06,1.06,0,0,0,69,66.17Z"/><path d="M69,83.69H152.4a1.06,1.06,0,0,0,1.06-1V80.53a1.07,1.07,0,0,0-1.06-1.06H69A1.06,1.06,0,0,0,68,80.53v2.11A1,1,0,0,0,69,83.69Z"/><path d="M136.88,100.16V98.05A1.05,1.05,0,0,0,135.82,97H69A1.05,1.05,0,0,0,68,98.05v2.11a1,1,0,0,0,1.05,1h66.78A1.05,1.05,0,0,0,136.88,100.16Z"/><path d="M188.52,49.38,193,53.82l9.54-9.54a1.06,1.06,0,0,1,1.49,0l1.49,1.5a1,1,0,0,1,0,1.49L193.71,59a1.06,1.06,0,0,1-1.49,0l-6.69-6.68a1.06,1.06,0,0,1,0-1.49l1.5-1.49A1,1,0,0,1,188.52,49.38Z"/></g></g></svg>