<svg xmlns="http://www.w3.org/2000/svg" xmlns:xlink="http://www.w3.org/1999/xlink" viewBox="0 0 1002 1002"><defs><style>.cls-1{fill:none;}.cls-2{fill:#8e716c;}.cls-3{fill:#282828;}.cls-4{fill:#ffb1a5;}.cls-5{fill:#f3978e;}.cls-6{fill:#9733ee;}.cls-7{fill:#fff;}.cls-8{fill:#c98bd2;}.cls-9{fill:url(#Degradado_sin_nombre_11);}</style><linearGradient id="Degradado_sin_nombre_11" y1="501" x2="1002" y2="501" gradientUnits="userSpaceOnUse"><stop offset="0" stop-color="#9733ee"/><stop offset="1" stop-color="#da22ff"/></linearGradient></defs><title>Nostros_Profile</title><g id="Capa_2" data-name="Capa 2"><g id="Capa_1-2" data-name="Capa 1"><path class="cls-1" d="M657.28,932.9h-4.8l0,35.29q6.33-2.05,12.58-4.27l-6.63-99.65Z"/><path class="cls-1" d="M762.24,850.38l-5.53,69.86q9.06-5.54,17.87-11.46l-4.5-58.4Z"/><path class="cls-1" d="M822.71,385.42l-.11,1,1.37-2.67C823.55,384.33,823.14,384.89,822.71,385.42Z"/><path class="cls-1" d="M992,501a488.88,488.88,0,0,1-57.48,230.72l-1.38-8.88q-.64-4.09-1.27-8.14h0c0-.22-.06-.44-.1-.65-.22-1.46-.44-2.92-.68-4.37q-.46-3-.93-6-.21-1.35-.42-2.67l-.51-3.23c-.27-1.72-.54-3.43-.82-5.12q-.51-3.24-1-6.42c-.25-1.55-.5-3.09-.75-4.61-1.11-6.79-2.2-13.34-3.28-19.54-.19-1-.37-2.08-.55-3.11-.46-2.64-.93-5.21-1.39-7.71-.17-1-.35-1.89-.52-2.82a1.76,1.76,0,0,0,0-.2c-.15-.8-.3-1.6-.45-2.38-1.09-5.75-2.16-11-3.22-15.78-.09-.44-.19-.88-.29-1.31-.27-1.18-.53-2.33-.8-3.43-.12-.49-.23-1-.35-1.44a.85.85,0,0,0,0-.17c-.16-.64-.31-1.26-.47-1.87-.09-.34-.17-.67-.26-1-.17-.65-.34-1.28-.51-1.9-.08-.31-.16-.61-.25-.91s-.17-.59-.25-.88a174.06,174.06,0,0,0-19.06-56.76,158.1,158.1,0,0,0-36.66-46.27c-1.14-1-2.29-2-3.46-3v.09A165.22,165.22,0,0,0,813,486.53h0a67.34,67.34,0,0,0-16-6.3V444.31q.32-1.48.54-2.94c11.21-7.68,19-17.55,21.59-30.75.2-1.15.39-2.3.58-3.45,8.38,3.84,26-20.37,19.29-28.5-4.81-5.81-9.48-2.34-12,.59,4.44-7.79,7-17.29,7-28.57a66.49,66.49,0,0,0-6.86-30c18.42-3.34,32.41-19.75,32.41-39.52C859.4,259,841.79,241,820.08,241s-39.33,18-39.33,40.14a41.39,41.39,0,0,0,.57,6.82,68.28,68.28,0,0,0-10.59-.83c-35,0-63.12,25.63-63.12,63.57,0,10.35,2.12,19.21,5.9,26.62-2.49-2.27-6-3.62-10.1.52-7.84,8,10.23,36.47,18.4,29.13.27,1.25.51,2.5.79,3.75,2.93,13,10.79,22.29,21.92,29.83,0,0,.17.44.49,1.17v39c-3.08,1-6.12,2.19-9.09,3.5-1,.41-2,.84-3,1.27s-2.21,1-3.29,1.44q-1.32.59-2.61,1.2l-2.48,1.19c-.92.45-1.83.9-2.73,1.36-1.1.55-2.18,1.12-3.25,1.69q-2.75,1.44-5.37,3c-.88.5-1.75,1-2.61,1.52s-1.71,1-2.55,1.54-1.66,1-2.47,1.53c-.58.36-1.15.73-1.71,1.1l-1.46,1c-.65.43-1.3.86-1.94,1.3-1.9,1.28-3.76,2.58-5.56,3.89-.65.47-1.3.94-1.94,1.42l-2.07,1.56c-.69.52-1.36,1-2,1.56l-1.88,1.48c-1.84,1.47-3.61,2.94-5.32,4.39l-1.84,1.59-.54.47-1.94,1.73c-3.19,2.87-6.09,5.65-8.7,8.29l-.58.58-.75.77,0,0-1.48,1.53-.11-.09c-.67-.6-1.33-1.18-2-1.75l-2.23-1.92L659.19,527l-1.93-1.58c-.76-.62-1.53-1.24-2.29-1.83l-.22-.17-.91-.73c-1.58-1.23-3.14-2.43-4.7-3.58l-.74-.54c-.79-.59-1.57-1.17-2.36-1.74q-1.92-1.39-3.83-2.71-2.66-1.83-5.24-3.53c-.92-.61-1.84-1.2-2.74-1.78-1.83-1.16-3.63-2.28-5.4-3.34-1.18-.71-2.35-1.4-3.5-2.07q-2.6-1.5-5.09-2.87c-.89-.49-1.77-1-2.64-1.42q-2.62-1.39-5.11-2.64l-2.37-1.16c-1.12-.55-2.21-1.06-3.27-1.56l-1.57-.72c-1.1-.5-2.16-1-3.19-1.42l-1.52-.66-1.47-.62-1.15-.48c-3-1.24-5.7-2.25-7.93-3l-1.59-.56c-2.4-.82-4.16-1.36-5.19-1.66l-.32-.09-.73-.2v0l-29.44-14.66V399.72a73.8,73.8,0,0,0,7.39-12.19,101.86,101.86,0,0,0,6.87-20,14.78,14.78,0,0,0,11.81,3c19.1-4,24.68-35.42,12.06-40.33-12-4.69-18.19,4.17-18.73,5l12.44-59.67a56.38,56.38,0,0,0-1.39-16.07c-3.8-13.78-12.46-33.2-43.69-47.69-51.59-24-68.3,21-68.3,21v0c-23.4-10.18-37.1,12.11-40.83,23.72-2.25,7-.4,14.54.26,19.33l11.73,59.42s-6.15-10-18.77-5.07-7,36.33,12.06,40.33a14.82,14.82,0,0,0,12.14-3.24,98.86,98.86,0,0,0,6.33,17.83,103.63,103.63,0,0,0,7.48,13.11v71.37L436,481.49a259.51,259.51,0,0,0-55.4,25.25c-7,4.33-12.69,8.34-16.8,11.4-2,1.39-3.92,2.84-5.89,4.33-2.94-2.58-6.1-5.24-9.53-7.87-5.33-4.12-10.49-7.67-15.39-10.74l.08.48a189.81,189.81,0,0,0-29.62-14.22l.56-.67-7.46-2.2c85.6-11.33,75.27-81.16,37.68-126.31a138.49,138.49,0,0,1-19.7-32.33c-6.34-29.54-31.41-48.68-61.55-48.68a63.8,63.8,0,0,0-41.12,14.42c-16.56,11.06-22.85,28.47-23.32,48.32C188,368.34,168.22,372.25,153,402c-21.7,42.32,3.6,79.24,57.55,85.47-2.22,1-4.42,2-6.6,3.13h0a123.35,123.35,0,0,0-31.15,15.57v-.1c-3.71,1.92-7.35,4-10.92,6.15.81-2.44,1.53-4.63,2.12-6.46a7.21,7.21,0,0,0-4.88-8.86c-.2-.06-.41-.11-.61-.15a7.94,7.94,0,0,0-8.94,3.74l-7.93,13.84-10.87-55.19a7.81,7.81,0,0,0-9-6.3,6.84,6.84,0,0,0-5.51,7.6l4.1,35.63-2.61,1L101.6,454a7.7,7.7,0,0,0-9.6-4.79,6.85,6.85,0,0,0-4.41,8.09l11.29,47-2.1.8L79,468.06a8.42,8.42,0,0,0-10.84-4.24,7.6,7.6,0,0,0-3.86,9.91l0,.07,15.36,37.74-.85.32L59.27,484.3a6.77,6.77,0,0,0-8.37-2.4l-.07,0A6.19,6.19,0,0,0,48,490.09l16.78,27.16s3.54,12.89,9.23,27.53,13.53,31.06,22.12,38.1c0,0,0,0,0,0,7.28,17.77,16.29,36.54,26.08,55.27-1.32,9.79-2.58,20.78-3.78,32.55l-.15,1.16,0,0c-.12,1.2-.24,2.4-.36,3.62-.62,6.18-1.21,12.54-1.79,19q-.3,3.33-.59,6.71-.54,6.16-1,12.46c-.21,2.63-.43,5.28-.63,7.93s-.42,5.32-.62,8-.41,5.34-.6,8c-.13,1.67-.25,3.34-.37,5-.93,12.76-1.78,25.49-2.57,37.78,0,.25,0,.49,0,.73q-.34,5.61-.69,11.08c-.08,1.37-.17,2.73-.25,4.08A488.78,488.78,0,0,1,10,501C10,229.83,229.83,10,501,10S992,229.83,992,501Z"/><path class="cls-1" d="M858.75,633.05l-1.79.27-11.13,93.19c2.59,7.88,13,42.51,18.41,104.85q15.21-16.71,28.86-34.8a33.71,33.71,0,0,1-2.85-7.43C875.94,732.82,863.57,671.53,858.75,633.05Z"/><path class="cls-1" d="M442.37,335.19v.07c.06.73.15,1.57.26,2.48Q442.49,336.45,442.37,335.19Z"/><path class="cls-1" d="M257.1,841.71l-6.3,81.84q10.52,6.24,21.37,12l-7.46-93.81Z"/><path class="cls-1" d="M379.31,966.4v10.4q-9.25-2.36-18.36-5.06c.2-3.5.38-7,.55-10.37,6.13-125.56-10.15-198.84-17.73-225.32,4-4.89,7.45-9.34,10.3-13q2.68,1.26,5.45,2.44l9.08-11.35,6.19,218.8h4.5Z"/><path class="cls-1" d="M177.41,733c-4.83,18.7-12.31,54.67-15.88,108.44q-.44,6.58-.79,13.54Q149,843.7,138,831.66q1.26-6,2.58-12.43c6.74-32.52,14.81-72.58,21.76-110.46C167.54,717.26,172.59,725.38,177.41,733Z"/><path class="cls-1" d="M572,335.3q-.16,1.73-.33,3.49c.17-1.27.3-2.42.38-3.4Z"/><path class="cls-1" d="M488.62,991.85q6.17.15,12.38.15t12.38-.15Z"/><path class="cls-2" d="M845.23,731.53H734.76c1.3,35.9.48,71.32-.33,116a1.38,1.38,0,0,1,.69-.08h62.16a1.49,1.49,0,0,1,0,2.95h-27.2l4.5,58.4a493.6,493.6,0,0,0,89.67-77.41c-5.42-62.34-15.82-97-18.41-104.85Z"/><path class="cls-2" d="M735.11,850.38a1.41,1.41,0,0,1-.73-.11c-.44,24.47-.86,51.72-.93,83.32q11.83-6.37,23.26-13.36l5.53-69.86Z"/><path class="cls-3" d="M735.11,850.38h62.16a1.49,1.49,0,0,0,0-2.95H735.11a1.38,1.38,0,0,0-.69.08l0,2.76A1.41,1.41,0,0,0,735.11,850.38Z"/><path class="cls-4" d="M914.92,624.37h0v.09l-.81.12.55,3.31-52.56,20.81L859,633l-.28,0c4.82,38.48,17.19,99.77,31.5,156.08a33.71,33.71,0,0,0,2.85,7.43,491.41,491.41,0,0,0,41.42-64.85c-7.35-47.46-14.46-93.47-20.55-114.52C914.33,619.58,914.65,622,914.92,624.37Z"/><polygon class="cls-5" points="862.07 648.72 914.63 627.9 914.08 624.59 859.03 633.01 862.07 648.72"/><path class="cls-6" d="M894.9,560.44a157.92,157.92,0,0,0-36.66-46.27A171,171,0,0,1,894.9,560.44Z"/><path class="cls-6" d="M914.89,624.46l-.81.13L859,633l-.28,0-1.79.28-11.13,93.19-.6,5H734.76L734.7,730l.41-.26-.36-8.17c13.7-4.31,22-8,22-8-12.65-90.73-52.5-147-90.94-181,13.9-14.56,37.55-35.06,70.16-48.34-1.63.72-3.25,1.47-4.84,2.27a46.31,46.31,0,0,0,63.63,18.64A47.26,47.26,0,0,0,813,486.53a165.22,165.22,0,0,1,41.82,24.73l2.06,122.07,58-9S914.89,624.43,914.89,624.46Z"/><path class="cls-4" d="M794.71,505.16A47.31,47.31,0,0,0,813,486.53h0a66.7,66.7,0,0,0-16-6.3V444.31c-1.94,9-6.75,18.31-18.21,19.31-21.6,1.9-31.51-17-33.72-21.92v39c-3.09,1-6.12,2.19-9.09,3.5-1.63.72-3.25,1.46-4.84,2.27A46.32,46.32,0,0,0,794.71,505.16Z"/><path class="cls-3" d="M778.73,463.63c11.46-1,16.26-10.29,18.21-19.31.21-1,.39-2,.54-2.94-1.4,1-2.84,1.89-4.34,2.78a42.19,42.19,0,0,1-43.71-.5l-2.35-1.44c-.87-.55-1.72-1.11-2.56-1.67,0,0,.17.44.49,1.17C747.22,446.65,757.13,465.52,778.73,463.63Z"/><path class="cls-5" d="M719.44,395.28a1.16,1.16,0,0,1-.59.17h0a1.15,1.15,0,0,1-1-.57c-4.88-8.14-10.11-5.84-10.16-5.82a1.16,1.16,0,0,1-1.58-.5,1.21,1.21,0,0,1,.49-1.62l.13-.06s6.68-2.93,12.48,5.79q-.61-4-1.11-8.05a47.27,47.27,0,0,1-4.61-7.31c-2.5-2.27-6.05-3.61-10.1.52-7.84,8,10.23,36.47,18.4,29.13q-1.23-5.89-2.21-11.82A1.12,1.12,0,0,1,719.44,395.28Z"/><polygon class="cls-3" points="718.85 395.46 718.85 395.46 718.85 395.46 718.85 395.46"/><path class="cls-3" d="M706.74,386.88l-.13.06a1.21,1.21,0,0,0-.49,1.62,1.16,1.16,0,0,0,1.58.5s5.28-2.32,10.16,5.82a1.12,1.12,0,0,0,1.58.4,1.12,1.12,0,0,0,.16-.15c-.13-.82-.25-1.64-.38-2.45C713.42,384,706.74,386.88,706.74,386.88Z"/><path class="cls-5" d="M822.59,386.45q-.33,2.86-.7,5.72c6.52-8.29,12.92-4.8,13-4.78a1.21,1.21,0,0,1,.28,1.67,1.16,1.16,0,0,1-1.4.41c-.23-.12-5.16-2.63-10.61,4.93a1.14,1.14,0,0,1-.94.48,1.13,1.13,0,0,1-.64-.23q-.85,6.28-1.92,12.52c8.38,3.84,26-20.37,19.29-28.51-4.81-5.81-9.49-2.33-12.05.59a47.11,47.11,0,0,1-2.92,4.52Z"/><path class="cls-3" d="M823.15,394.4c5.44-7.57,10.37-5.05,10.61-4.93a1.16,1.16,0,0,0,1.4-.41,1.21,1.21,0,0,0-.28-1.67c-.07,0-6.46-3.51-13,4.78-.11.83-.21,1.66-.33,2.49a1.13,1.13,0,0,0,.64.23A1.14,1.14,0,0,0,823.15,394.4Z"/><path class="cls-4" d="M747.08,442.21l2.35,1.44a42.19,42.19,0,0,0,43.71.5c1.5-.89,2.94-1.82,4.34-2.78,11.21-7.68,19-17.55,21.59-30.76.21-1.15.39-2.3.58-3.45q1.06-6.25,1.92-12.52c.11-.83.22-1.66.33-2.49q.37-2.86.7-5.72l.11-1c.19-1.66.37-3.33.53-5l-4.86.12a22.45,22.45,0,0,1-44.88-.68,5.07,5.07,0,0,0-6.52-.09,23.37,23.37,0,0,1-1,5.93,1.43,1.43,0,0,1,1.16-.38,1.47,1.47,0,0,1,1.26,1.28v8.12a2,2,0,0,0,1.92,2.06,1.94,1.94,0,0,0,.73-.12l3.64-1a1.45,1.45,0,0,1,1.89.84,1.5,1.5,0,0,1-.82,1.93,1.43,1.43,0,0,1-.31.09l-3.64,1a5.23,5.23,0,0,1-1.36.22,4.88,4.88,0,0,1-4.58-3,5.17,5.17,0,0,1-.35-1.92v-7.68a22.39,22.39,0,0,1-43.44-6.51l-4.46-.12c.15,1.38.31,2.76.47,4.15q.49,4,1.11,8.05c.13.82.24,1.64.38,2.45q1,5.94,2.21,11.82c.26,1.25.51,2.51.79,3.76,2.92,12.94,10.79,22.28,21.92,29.83C745.36,441.11,746.21,441.66,747.08,442.21Zm4.43-34.61h37.89S772.61,428.44,751.51,407.6Z"/><path class="cls-4" d="M729.46,362l-.92.22s1.31-7.57,13.23-10.32,15.89,3.35,15.89,3.35l-7.07,1.69A22.82,22.82,0,0,1,766.8,376a8,8,0,0,1,6.86,0,22.81,22.81,0,0,1,16.43-19.19l-6.58-1.63s3.87-6.11,15.37-3.35,12.79,10.32,12.79,10.32l-.58-.14a23.07,23.07,0,0,1,7.27,15.29l5-.13,0,1.71q.31-3.25.56-6.51c-1.5-2.13-13.25-19.34-17.29-40.71-14,7.8-38.38,16.84-76,17.25A145.89,145.89,0,0,1,717,373.68c.09,1.2.2,2.39.32,3.58l4.77.12A23.07,23.07,0,0,1,729.46,362Z"/><path class="cls-4" d="M744.52,359.29A19.72,19.72,0,1,0,763.83,379,19.51,19.51,0,0,0,744.52,359.29Zm2.09,22.78a5,5,0,1,1,4.9-5A5,5,0,0,1,746.61,382.07Z"/><path class="cls-4" d="M796,359.29A19.72,19.72,0,1,0,815.26,379,19.52,19.52,0,0,0,796,359.29Zm-2.77,22.78a5,5,0,1,1,4.9-5A5,5,0,0,1,793.19,382.07Z"/><path class="cls-3" d="M765.54,394.79a5.17,5.17,0,0,0,.35,1.92,4.88,4.88,0,0,0,4.58,3,5.23,5.23,0,0,0,1.36-.22l3.64-1a1.43,1.43,0,0,0,.31-.09,1.5,1.5,0,0,0,.82-1.93,1.45,1.45,0,0,0-1.89-.84l-3.64,1a1.94,1.94,0,0,1-.73.12,2,2,0,0,1-1.92-2.06v-8.12a1.47,1.47,0,0,0-1.26-1.28,1.43,1.43,0,0,0-1.16.38c-.14.47-.3.94-.47,1.4Z"/><path class="cls-3" d="M741.78,351.86c-11.92,2.75-13.23,10.32-13.23,10.32l.92-.22a22.1,22.1,0,0,1,21.13-5.06l7.07-1.69S753.69,349.11,741.78,351.86Z"/><path class="cls-3" d="M798.89,351.86c-11.5-2.75-15.37,3.35-15.37,3.35l6.58,1.63a22.12,22.12,0,0,1,21,5.2l.58.14S810.38,354.62,798.89,351.86Z"/><ellipse class="cls-3" cx="746.61" cy="377.06" rx="4.9" ry="5.01"/><ellipse class="cls-3" cx="793.19" cy="377.06" rx="4.9" ry="5.01"/><path class="cls-7" d="M789.41,407.6H751.51C772.61,428.44,789.41,407.6,789.41,407.6Z"/><path class="cls-8" d="M764.35,377.78A8.15,8.15,0,0,1,766.8,376a22.82,22.82,0,0,0-16.21-19.11A22.1,22.1,0,0,0,729.46,362a23.07,23.07,0,0,0-7.36,15.42l1.63,0-.08,3.21-1.56,0a22.39,22.39,0,0,0,43.44,6.51c.17-.46.33-.92.47-1.4a23.37,23.37,0,0,0,1-5.93,5.14,5.14,0,0,0-.47.4Zm-19.83,20.93A19.72,19.72,0,1,1,763.83,379,19.51,19.51,0,0,1,744.52,398.71Z"/><path class="cls-8" d="M816.72,377.38l1.65,0A23.07,23.07,0,0,0,811.1,362a22.12,22.12,0,0,0-21-5.2A22.81,22.81,0,0,0,773.67,376a8.15,8.15,0,0,1,2.26,1.58l.15.16-2.35,2.28c-.07-.07-.16-.12-.24-.19a22.45,22.45,0,0,0,44.88.68l-1.58,0ZM796,398.71A19.72,19.72,0,1,1,815.26,379,19.52,19.52,0,0,1,796,398.71Z"/><path class="cls-8" d="M776.08,377.78l-.15-.16a8.15,8.15,0,0,0-2.26-1.58,8,8,0,0,0-6.86,0,8.15,8.15,0,0,0-2.46,1.76l2.16,2.4a5.14,5.14,0,0,1,.47-.4,5.07,5.07,0,0,1,6.52.09c.08.07.16.11.24.19Z"/><polygon class="cls-8" points="723.74 377.43 722.1 377.38 717.33 377.26 717.15 377.25 717.07 380.46 717.65 380.48 722.1 380.59 723.66 380.63 723.74 377.43"/><polygon class="cls-8" points="823.38 378.92 823.34 377.21 818.37 377.34 816.72 377.38 816.8 380.59 818.37 380.55 823.24 380.43 823.41 380.42 823.38 378.92"/><path class="cls-3" d="M827,320.65a66.49,66.49,0,0,1,6.86,30c0,11.28-2.52,20.78-7,28.57a47.92,47.92,0,0,1-2.93,4.52c-.41.55-.82,1.11-1.25,1.64.18-1.66.36-3.33.53-5h.17l0-1.5q.3-3.25.56-6.51c-1.5-2.13-13.25-19.34-17.29-40.71-14.05,7.79-38.38,16.84-76,17.24A146.71,146.71,0,0,1,717,373.68c.09,1.19.2,2.38.31,3.58h-.18l-.08,3.21.58,0c.14,1.38.3,2.76.47,4.14a47.31,47.31,0,0,1-4.61-7.31c-3.78-7.41-5.9-16.27-5.9-26.62,0-37.94,28.16-63.57,63.12-63.57a68.28,68.28,0,0,1,10.59.83,41.39,41.39,0,0,1-.57-6.82c0-22.17,17.61-40.14,39.33-40.14s39.32,18,39.32,40.14C859.4,300.9,845.41,317.31,827,320.65Z"/><path class="cls-3" d="M361.5,961.37c-.17,3.42-.35,6.87-.55,10.37a489,489,0,0,1-88.79-36.21l-1-12.07-6.5-81.75h-7.6l-5.43,70.5-.87,11.34A493.11,493.11,0,0,1,160.74,855q.36-6.95.79-13.54c3.57-53.77,11-89.74,15.88-108.44,14.18,22.43,26.34,40.53,33.38,50.83,10.32,16.86,25.69,32.34,46.1,27.53,27.28-6.41,64.69-48,86.88-75.31C351.35,762.53,367.63,835.81,361.5,961.37Z"/><path class="cls-3" d="M201,378.22c-.48-.6-.95-1.22-1.4-1.85l1.53,3Z"/><path class="cls-3" d="M334.27,360.94a138.49,138.49,0,0,1-19.7-32.33c-6.34-29.54-31.41-48.68-61.55-48.68a63.8,63.8,0,0,0-41.12,14.42c-16.56,11.06-22.85,28.47-23.32,48.32C188,368.34,168.22,372.25,153,402c-21.7,42.32,3.6,79.24,57.55,85.47q8-3.6,16.25-6.47V436.31c5.92,8.58,14.77,18.82,24.66,21.37a24.62,24.62,0,0,0,14.41-.83c4.33-1.56,9.42-6.4,12.86-12.71V482l17.83,5.26C382.19,475.92,371.86,406.09,334.27,360.94Zm-32.34,39c-.26,1.24-.51,2.49-.79,3.73-2.61,11.55-9.15,20.22-18.42,27.31-1.91,1.46-3.92,2.86-6,4.19l-2.35,1.44a42.17,42.17,0,0,1-43.71.5c-2-1.21-4-2.49-5.83-3.83-10.41-7.53-17.63-17.09-20.1-29.7-.21-1.15-.39-2.3-.58-3.45-8.39,3.84-26-20.37-19.29-28.5,4.9-5.93,9.67-2.19,12.2.77q1.21,2.09,2.61,4c.46.63.92,1.25,1.41,1.85q-.72-6.45-1.22-12.93c1.54-2.21,12.62-18.52,16.94-39,14,8.92,38.83,19.13,78.66,18.84a124.26,124.26,0,0,0,11.53,18.54q-.48,6.9-1.3,13.77a46.62,46.62,0,0,0,4.48-7.08c2.51-2.33,6.11-3.77,10.21.42C328.18,378.77,310.1,407.24,301.93,399.89Z"/><path class="cls-5" d="M317,379.79a1.21,1.21,0,0,1,.43,1.64,1.16,1.16,0,0,1-1.37.54c-.21,0-5.35-2.2-10.16,5.82a1.17,1.17,0,0,1-1,.57,1.14,1.14,0,0,1-.76-.31q-1,5.94-2.21,11.83c8.17,7.36,26.25-21.12,18.41-29.12-4.11-4.19-7.71-2.75-10.21-.42a47.23,47.23,0,0,1-4.49,7.08q-.5,4.09-1.12,8.17C310.32,376.87,316.93,379.77,317,379.79Z"/><path class="cls-3" d="M305.9,387.79c4.81-8,9.95-5.82,10.16-5.82a1.16,1.16,0,0,0,1.37-.54,1.21,1.21,0,0,0-.43-1.64c-.07,0-6.68-2.93-12.48,5.79-.13.82-.25,1.65-.38,2.47a1.14,1.14,0,0,0,.76.31A1.17,1.17,0,0,0,305.9,387.79Z"/><path class="cls-5" d="M201.56,387.84v0a1.17,1.17,0,0,1-.94-.48c-5.47-7.59-10.42-5-10.61-4.91a1.16,1.16,0,0,1-1.53-.65,1.21,1.21,0,0,1,.41-1.43s6.44-3.52,13,4.75q-.37-2.87-.7-5.74l-1.53-3a47.12,47.12,0,0,1-2.61-4c-2.53-3-7.3-6.69-12.21-.77-6.74,8.14,10.91,32.34,19.29,28.51q-1.05-6.21-1.91-12.45A1.15,1.15,0,0,1,201.56,387.84Z"/><path class="cls-3" d="M188.89,380.34a1.21,1.21,0,0,0-.41,1.43,1.16,1.16,0,0,0,1.53.65c.19-.12,5.14-2.68,10.61,4.91a1.17,1.17,0,0,0,.94.48v0a1.15,1.15,0,0,0,.63-.2c-.12-.85-.22-1.7-.33-2.54C195.33,376.82,188.89,380.34,188.89,380.34Z"/><path class="cls-4" d="M230.61,437.06a42.19,42.19,0,0,0,43.71-.5l2.35-1.44q3.19-2,6-4.19c9.28-7.09,15.82-15.76,18.42-27.31.28-1.24.53-2.49.79-3.74q1.24-5.89,2.21-11.83c.13-.82.25-1.64.38-2.47q.62-4.08,1.12-8.17.83-6.87,1.3-13.77a125.23,125.23,0,0,1-11.53-18.53c-39.82.28-64.63-9.93-78.66-18.84-4.32,20.5-15.39,36.81-16.94,39q.5,6.48,1.22,12.93l.13,1.13q.33,2.87.7,5.74c.11.85.22,1.7.33,2.54q.85,6.24,1.91,12.45c.2,1.15.38,2.3.58,3.45,2.47,12.61,9.69,22.17,20.1,29.7C226.63,434.57,228.56,435.85,230.61,437.06Zm-6.78-66.3a4.9,4.9,0,1,1,4.9,5A4.94,4.94,0,0,1,223.83,370.76Zm49.77,28.5s-3.05,12.1-22.6,12.1a22.8,22.8,0,0,1-20.53-12.1Zm-3.19-28.5a4.9,4.9,0,1,1,4.9,5A4.94,4.94,0,0,1,270.4,370.76Zm8-23.4c12.67,3,14.08,11.16,14.08,11.16L261.32,351S265.76,344.39,278.43,347.36Zm-30.76,35.43a1.44,1.44,0,1,1,2.89,0v4.79a2,2,0,0,0,1.93,2,1.94,1.94,0,0,0,.74-.13l3.64-1a1.44,1.44,0,0,1,1.76,1.05,1.48,1.48,0,0,1-1,1.8l-3.66,1a5.18,5.18,0,0,1-1.34.17,4.88,4.88,0,0,1-4.58-3,5.17,5.17,0,0,1-.35-1.92Zm-19.94-35.43c12.93-3,17.22,3.62,17.22,3.62l-31.58,7.54S214.79,350.33,227.72,347.36Z"/><path class="cls-3" d="M252.59,392.53a5.18,5.18,0,0,0,1.34-.17l3.66-1a1.48,1.48,0,0,0,1-1.8,1.44,1.44,0,0,0-1.76-1.05l-3.64,1a1.94,1.94,0,0,1-.74.13,2,2,0,0,1-1.93-2v-4.79a1.44,1.44,0,1,0-2.89,0v4.79a5.17,5.17,0,0,0,.35,1.92A4.88,4.88,0,0,0,252.59,392.53Z"/><path class="cls-3" d="M278.43,347.36c-12.67-3-17.11,3.62-17.11,3.62l31.18,7.54S291.1,350.33,278.43,347.36Z"/><path class="cls-3" d="M227.72,347.36c-12.93,3-14.36,11.16-14.36,11.16L244.94,351S240.65,344.39,227.72,347.36Z"/><ellipse class="cls-3" cx="228.73" cy="370.76" rx="4.9" ry="4.98"/><ellipse class="cls-3" cx="275.31" cy="370.76" rx="4.9" ry="4.98"/><path class="cls-7" d="M251,411.36c19.55,0,22.6-12.1,22.6-12.1H230.47A22.8,22.8,0,0,0,251,411.36Z"/><path class="cls-7" d="M310.76,344.12a88.08,88.08,0,0,0-1.52-11.65,54.82,54.82,0,0,0-20.47-32.08C304.82,316.41,310.09,340.76,310.76,344.12Z"/><path class="cls-4" d="M162.37,708.77c-7,37.88-15,77.94-21.76,110.46q-1.32,6.42-2.58,12.43-15.45-16.95-29.29-35.31c.08-1.35.17-2.71.25-4.08.22-3.64.45-7.34.69-11.08,0-.24,0-.48,0-.73.79-12.29,1.64-25,2.57-37.78.12-1.67.25-3.34.37-5l.6-8c.2-2.66.41-5.33.62-8s.42-5.3.63-7.93q.51-6.29,1-12.46.29-3.37.59-6.71c.58-6.5,1.17-12.86,1.79-19l.36-3.62c.92,1.33,40.15,57.71,40.36,56.62.06-.36,1.53-8.8,3.49-20.11Z"/><path class="cls-4" d="M122.41,638.57l-4,32.16c1.2-11.77,2.46-22.76,3.78-32.55C122.28,638.31,122.35,638.44,122.41,638.57Z"/><path class="cls-5" d="M162.16,708.43c-2,11.31-3.43,19.75-3.49,20.11-.21,1.09-39.44-55.29-40.36-56.62l0,0,.15-1.16,4-32.16C135,662.71,149,686.75,162.16,708.43Z"/><path class="cls-6" d="M295,552.7h28.85A301.24,301.24,0,0,0,299,582.07a16.9,16.9,0,0,1-4-12.6Z"/><path class="cls-6" d="M338.61,538.43q-5.73,5.18-11.46,10.92H293.44A1.66,1.66,0,0,0,291.8,551V569.4a20.23,20.23,0,0,0,6,14.38,327.83,327.83,0,0,0-34.47,59.63s2.76,4.25,8,10.94l-3.16,4.15.09.14L244.4,688.59l-77.07-92.9,5.48-89.47A123.35,123.35,0,0,1,204,490.65a67,67,0,0,0,49.41,23.11c28.56,0,46.21-19,50.12-23.64a189.81,189.81,0,0,1,29.62,14.22Z"/><path class="cls-4" d="M304,489.45l-.56.67c-3.91,4.6-21.56,23.64-50.12,23.64A67,67,0,0,1,204,490.65h0c2.18-1.09,4.38-2.12,6.6-3.13q8-3.6,16.25-6.47V436.31c5.92,8.58,14.77,18.82,24.66,21.37a24.62,24.62,0,0,0,14.41-.83c4.33-1.56,9.42-6.4,12.86-12.71V482l17.83,5.26Z"/><path class="cls-3" d="M295,569.47V552.7h28.85q1.64-1.7,3.28-3.35H293.44A1.66,1.66,0,0,0,291.8,551V569.4a20.2,20.2,0,0,0,6,14.38l1.25-1.71A16.93,16.93,0,0,1,295,569.47Z"/><path class="cls-8" d="M172.82,506.12v.1l-5.48,89.47L144.52,568.2c.2-5.33,11.32-37.67,17.38-55.93C165.47,510.1,169.11,508,172.82,506.12Z"/><path class="cls-3" d="M652.48,932.9l0,35.29a488.2,488.2,0,0,1-68.69,16.86,495.57,495.57,0,0,1-70.39,6.8H488.62q-17.64-.45-35-2.11a489.44,489.44,0,0,1-74.35-12.94l0-43.9Z"/><path class="cls-4" d="M734.43,847.52c.81-44.66,1.63-80.09.33-116q0-.76-.06-1.53c-26.6,17.72-63.22,23.63-74.46,25.08l-1.82,109.19L665,963.92a488.29,488.29,0,0,0,68.39-30.33c.07-31.59.49-58.85.93-83.32Z"/><path class="cls-5" d="M734.75,721.57c-17.64,5.54-44.34,12.16-74.17,13.48l-.33,20c11.25-1.45,47.87-7.36,74.46-25.08l.41-.27Z"/><path class="cls-8" d="M638.58,511.67A236.82,236.82,0,0,1,664,531.07l-3.39,204c29.83-1.32,56.53-7.94,74.17-13.48a230.36,230.36,0,0,0,22-8c-12.64-90.73-52.5-147-90.93-181-42.66-37.81-83.57-48.32-83.57-48.32v0l.06,0A248.43,248.43,0,0,1,638.58,511.67Z"/><path class="cls-4" d="M81.12,515.14l-2.32-3.28.85-.32Z"/><path class="cls-3" d="M141.63,517.81a1.79,1.79,0,0,1-2,1.63h0c-.23,0-.45,0-.68,0a1.61,1.61,0,0,0-.22,0A22.76,22.76,0,0,0,124,524.73c-5.91,5-9.38,13.31-10.18,24.57a1.82,1.82,0,0,1-1.78,1.7h-.14a1.84,1.84,0,0,1-1.65-2c.94-12.31,4.7-21.56,11.5-27.16A26,26,0,0,1,140,515.79,1.84,1.84,0,0,1,141.63,517.81Z"/><path class="cls-5" d="M353.79,722.88l-13.25,17.06c-32.43-20.73-70.3-78.25-72.3-81.3l-.09-.14,3.16-4.15C284.57,671.32,313.68,704,353.79,722.88Z"/><path class="cls-8" d="M368.6,714.1l-9.08,11.35q-2.76-1.19-5.45-2.44l-.28-.13c-40.11-18.89-69.22-51.56-82.48-68.53-5.23-6.69-8-10.94-8-10.94a327.83,327.83,0,0,1,34.47-59.63c.42-.57.83-1.15,1.25-1.71a301.24,301.24,0,0,1,24.83-29.37c1.09-1.13,2.19-2.25,3.28-3.35q5.73-5.76,11.46-10.92l0,0L358,522.48h0c2-1.49,3.94-2.94,5.89-4.33l-.78.58Z"/><path class="cls-6" d="M664,531.07l-3.4,204-.33,20-1.82,109.19-1.14,68.63H374.79L368.6,714.1l-5.54-195.38.78-.58c4.11-3.06,9.78-7.07,16.8-11.4A259.51,259.51,0,0,1,436,481.49l-1.55.72S440.85,524,508.14,525c66.06.91,73.79-39.21,74-40.68a0,0,0,0,0,0,0l.07,0a248.68,248.68,0,0,1,56.31,27.35A237,237,0,0,1,664,531.07Z"/><path class="cls-4" d="M552.75,400.2v-.48a61.75,61.75,0,0,1-4,4.83A48.64,48.64,0,0,0,552.75,400.2Z"/><path class="cls-4" d="M517.59,421.31l.65-.12Z"/><path class="cls-4" d="M510.8,422.1a50.39,50.39,0,0,0,6.07-.67Q513.9,421.9,510.8,422.1Z"/><path class="cls-4" d="M508.14,525c66.06.92,73.78-39.2,74-40.67v0l-29.45-14.66V400.2s-10.32,48.34-49.11,43.11c-33.72-4.53-41.34-44.07-41.34-44.07l.12.15c-.27-.38-.54-.78-.8-1.17v71.37L436,481.49l-1.55.72S440.85,524,508.14,525Z"/><path class="cls-3" d="M584.59,275.53,572.15,335.2l0,.06s0,.09,0,.13l-.05-.09c.24-2.68.44-5.32.61-7.87h.65l-.09-4.67h-.29c.34-6.66.45-12.62.45-17.31,0,0,0-1,0-2.62-4.49-7.86-16.56-22.57-44-22-41.9.84-58.92-19.53-64.63-29.22-16.63,13.77-21.66,34.72-23.18,46.12a68.48,68.48,0,0,0-.65,8.08s-.12,9,.79,21.64l-.06,2.52h.25c.14,1.69.3,3.45.47,5.24v.07l-11.73-59.42c-.66-4.79-2.51-12.31-.26-19.33,3.73-11.61,17.43-33.9,40.83-23.72v0s16.71-45,68.3-21c31.23,14.49,39.89,33.91,43.69,47.69A56.38,56.38,0,0,1,584.59,275.53Z"/><path class="cls-5" d="M572.09,335.39c-.08,1-.22,2.13-.38,3.4-.37,3.65-.82,7.37-1.36,11.1,8-13.61,18.47-10.24,18.58-10.2a1.69,1.69,0,0,1,1,2.12,1.64,1.64,0,0,1-2.08,1.07c-.42-.14-9.39-2.8-16.17,11.47a1.64,1.64,0,0,1-1.48.93,1.6,1.6,0,0,1-.72-.18c-.71,4.21-1.54,8.38-2.53,12.41a14.8,14.8,0,0,0,11.81,3c19.1-4,24.68-35.43,12.06-40.34-12-4.68-18.18,4.18-18.73,5l0,.07Z"/><path class="cls-3" d="M571.73,354.35c6.78-14.28,15.74-11.62,16.17-11.47a1.64,1.64,0,0,0,2.08-1.07,1.69,1.69,0,0,0-1-2.12c-.11,0-10.61-3.41-18.58,10.2q-.38,2.61-.82,5.22a1.6,1.6,0,0,0,.72.18A1.64,1.64,0,0,0,571.73,354.35Z"/><path class="cls-5" d="M444.92,355.1a1.62,1.62,0,0,1-.7.16v0a1.64,1.64,0,0,1-1.48-1C436,340,427,342.74,426.58,342.86a1.64,1.64,0,0,1-2.08-1.07,1.69,1.69,0,0,1,1-2.12c.11,0,10.74-3.44,18.72,10.45-.67-4.22-1.21-8.39-1.64-12.38-.11-.91-.2-1.75-.26-2.48,0,0-6.15-10-18.77-5.08s-7,36.34,12.06,40.34a14.82,14.82,0,0,0,12.13-3.24c-1.05-4-1.94-8.15-2.7-12.28Z"/><path class="cls-3" d="M425.55,339.67a1.69,1.69,0,0,0-1,2.12,1.64,1.64,0,0,0,2.08,1.07c.38-.12,9.41-2.9,16.17,11.47a1.64,1.64,0,0,0,1.48,1v0a1.62,1.62,0,0,0,.7-.16l.17-.11q-.45-2.44-.83-4.87C436.29,336.23,425.66,339.67,425.55,339.67Z"/><path class="cls-4" d="M475.55,304.29a23.53,23.53,0,1,0,23,23.52A23.29,23.29,0,0,0,475.55,304.29Zm1.62,27.86a6.09,6.09,0,1,1,6-6.08A6,6,0,0,1,477.17,332.15Z"/><path class="cls-4" d="M537.85,304.29a23.53,23.53,0,1,0,23,23.52A23.29,23.29,0,0,0,537.85,304.29Zm-4.76,27.86a6.09,6.09,0,1,1,6-6.08A6,6,0,0,1,533.08,332.15Z"/><path class="cls-4" d="M448,325.43a28.3,28.3,0,0,1,12.11-21l-7.34,1.93s1.83-11.47,18.23-15.66,21.87,5.1,21.87,5.1l-15,3.94a27.89,27.89,0,0,1,25,24,10.14,10.14,0,0,1,7.61,0,28,28,0,0,1,23.11-23.76l-15.8-4.16s5.47-9.29,21.87-5.1,18.23,15.66,18.23,15.66l-3.16-.83a28.29,28.29,0,0,1,10.31,17.41l7.86-.16c.34-6.66.45-12.62.45-17.31,0,0,0-1,0-2.63-4.49-7.86-16.57-22.57-44-22-41.9.84-58.92-19.53-64.63-29.22-16.63,13.78-21.66,34.73-23.17,46.13a68.16,68.16,0,0,0-.66,8.08s-.12,9,.79,21.64l.05-2.15Z"/><path class="cls-4" d="M508.49,422.16c.78,0,1.54,0,2.31-.06q3.1-.2,6.07-.67l.72-.12.65-.12c14.41-2.86,25.05-11.38,30.47-16.64a61.75,61.75,0,0,0,4-4.83,73.22,73.22,0,0,0,7.39-12.19,101,101,0,0,0,6.87-20c1-4,1.81-8.21,2.53-12.41q.44-2.6.82-5.22c.54-3.73,1-7.45,1.36-11.1q.18-1.76.33-3.49c.24-2.68.44-5.32.61-7.87l-7.17.15c0,.08,0,.16,0,.24,0,15.58-12.38,28.2-27.64,28.22-14.91,0-27-12-27.61-27.12a5.69,5.69,0,0,0-7.07,0,29,29,0,0,1-.27,3,1.67,1.67,0,0,1,1.24,1.61V349.2a3.51,3.51,0,0,0,.23,1.29,3.29,3.29,0,0,0,3.94,1.8l5.09-1.39a1.64,1.64,0,0,1,1.93,1.32,1.68,1.68,0,0,1-1.09,1.92l-5.09,1.39a6.9,6.9,0,0,1-1.81.22,6.43,6.43,0,0,1-6-4,6.9,6.9,0,0,1-.47-2.54v-10A27.52,27.52,0,0,1,448,330.1l-6.1-.16c.14,1.7.29,3.45.47,5.25q.12,1.26.26,2.55c.43,4,1,8.17,1.64,12.38q.39,2.43.83,4.87c.76,4.13,1.65,8.27,2.7,12.28a98.82,98.82,0,0,0,6.33,17.83,102.9,102.9,0,0,0,7.49,13.11c.27.39.53.79.8,1.17A58.88,58.88,0,0,0,508.49,422.16Zm-24.77-58.24a1.62,1.62,0,0,1,2.18-.3c.12,0,5.91,4.29,20.48,4.29a52.53,52.53,0,0,0,22.24-4.46,1.63,1.63,0,0,1,2.15.9,1.7,1.7,0,0,1-.65,2.07,54.63,54.63,0,0,1-23.75,4.84c-15.93,0-22.2-4.79-22.48-5A1.7,1.7,0,0,1,483.72,363.92Z"/><path class="cls-3" d="M548.71,404.55c-5.42,5.27-16.06,13.79-30.47,16.64l-.65.12-.72.12a50.39,50.39,0,0,1-6.07.67c-.76,0-1.53.06-2.31.06a58.88,58.88,0,0,1-46.08-22.77l-.12-.15s7.63,39.55,41.34,44.07c38.79,5.22,49.11-43.11,49.11-43.11A48.64,48.64,0,0,1,548.71,404.55Z"/><path class="cls-3" d="M500.84,349.18a6.9,6.9,0,0,0,.47,2.54,6.43,6.43,0,0,0,6,4,6.9,6.9,0,0,0,1.81-.22l5.09-1.39a1.68,1.68,0,0,0,1.09-1.92,1.64,1.64,0,0,0-1.93-1.32l-5.09,1.39a3.29,3.29,0,0,1-3.94-1.8,3.51,3.51,0,0,1-.23-1.29V333.54a1.67,1.67,0,0,0-1.24-1.61,28.47,28.47,0,0,1-2,7.25Z"/><ellipse class="cls-3" cx="477.17" cy="326.07" rx="5.96" ry="6.08"/><ellipse class="cls-3" cx="533.08" cy="326.07" rx="5.96" ry="6.08"/><path class="cls-3" d="M539.68,290.67c-16.4-4.19-21.87,5.1-21.87,5.1l15.8,4.16a27.2,27.2,0,0,1,21.14,5.57l3.16.83S556.08,294.86,539.68,290.67Z"/><path class="cls-3" d="M471,290.67c-16.4,4.19-18.23,15.66-18.23,15.66l7.34-1.93a27.12,27.12,0,0,1,15.42-4.8c.8,0,1.59,0,2.37.11l15-3.94S487.42,286.47,471,290.67Z"/><path class="cls-3" d="M506.38,371.27a54.63,54.63,0,0,0,23.75-4.84,1.7,1.7,0,0,0,.65-2.07,1.63,1.63,0,0,0-2.15-.9,52.53,52.53,0,0,1-22.24,4.46c-14.57,0-20.37-4.29-20.48-4.29a1.62,1.62,0,0,0-2.18.3,1.7,1.7,0,0,0,.18,2.36C484.18,366.47,490.45,371.27,506.38,371.27Z"/><path class="cls-7" d="M502.46,329.56l-3.12-3.43a10.24,10.24,0,0,1,3.55-2.42,27.89,27.89,0,0,0-25-24c-.78-.07-1.57-.11-2.37-.11a27.12,27.12,0,0,0-15.42,4.8,28.3,28.3,0,0,0-12.11,21l2.24.06-.12,4.67L448,330.1a27.52,27.52,0,0,0,52.84,9.07,28.47,28.47,0,0,0,2-7.25,29,29,0,0,0,.27-3,5.75,5.75,0,0,0-.53.43Zm-26.91,21.77a23.53,23.53,0,1,1,23-23.52A23.29,23.29,0,0,1,475.55,351.34Z"/><path class="cls-7" d="M563.73,322.94l1.34,0a28.29,28.29,0,0,0-10.31-17.41,27.2,27.2,0,0,0-21.14-5.57,28,28,0,0,0-23.11,23.76,10.25,10.25,0,0,1,3.41,2.25l.19.2-3.24,3.31a5.79,5.79,0,0,0-.63-.53C510.8,344,522.94,356,537.85,356c15.26,0,27.63-12.64,27.64-28.22,0-.08,0-.16,0-.24l-1.66,0Zm-25.88,28.4a23.53,23.53,0,1,1,23-23.52A23.29,23.29,0,0,1,537.85,351.34Z"/><path class="cls-7" d="M514.1,326.14l-.19-.2a10.25,10.25,0,0,0-3.41-2.25,10.14,10.14,0,0,0-7.61,0,10.24,10.24,0,0,0-3.55,2.42l3.12,3.43.17-.18a5.75,5.75,0,0,1,.53-.43,5.69,5.69,0,0,1,7.07,0,5.79,5.79,0,0,1,.63.53Z"/><polygon class="cls-7" points="450.25 325.49 448.01 325.43 441.76 325.27 441.71 327.42 441.65 329.94 441.9 329.94 448.01 330.1 450.14 330.16 450.25 325.49"/><polygon class="cls-7" points="573.21 322.75 572.92 322.75 565.06 322.91 563.73 322.94 563.82 327.61 565.48 327.58 572.65 327.43 573.3 327.42 573.21 322.75"/><path class="cls-8" d="M914.88,624.37h0c-.27-2.4-.59-4.79-1-7.17a174.08,174.08,0,0,0-19.07-56.76,171,171,0,0,0-36.66-46.27q-1.71-1.52-3.46-3v.09l2.06,122.06Z"/><path class="cls-8" d="M338.65,538.39l19.29-15.92h0c-2.93-2.59-6.1-5.24-9.53-7.88-5.33-4.12-10.49-7.66-15.39-10.73l.08.48,5.51,34.09Z"/><path class="cls-3" d="M826.46,607.82a19.87,19.87,0,0,0,19.64-20V569.4a1.66,1.66,0,0,0-1.64-1.68h-36a1.66,1.66,0,0,0-1.64,1.68v18.37A19.87,19.87,0,0,0,826.46,607.82ZM810,571.05h32.85v16.77a16.43,16.43,0,1,1-32.85,0Z"/><path class="cls-3" d="M587.92,606.14v25.13c0,14.77,11.75,26.73,26.21,26.75h.07c14.5,0,26.27-12,26.28-26.78v-25.1a1.66,1.66,0,0,0-1.64-1.68H589.56A1.66,1.66,0,0,0,587.92,606.14Zm3.26,1.58h45.9v23.44a23,23,0,1,1-45.9,0Z"/><path class="cls-8" d="M701,571l-37-37c6.78-6.18,13.11-11.82,19-17a102,102,0,0,1,13-10c2-1.31,3.78-2.32,5-3Z"/><path class="cls-4" d="M353.79,722.88l-13.25,17.06c-32.43-20.73-70.3-78.25-72.3-81.3L244.4,688.59l-77.07-92.9L144.52,568.2c.2-5.33,11.32-37.67,17.38-55.93.81-2.44,1.53-4.63,2.12-6.46a7.21,7.21,0,0,0-4.88-8.86c-.2-.06-.41-.11-.61-.15a7.94,7.94,0,0,0-8.94,3.74l-7.93,13.84-10.87-55.19a7.81,7.81,0,0,0-9-6.3,6.84,6.84,0,0,0-5.51,7.6l4.1,35.63-2.61,1L101.6,454a7.7,7.7,0,0,0-9.6-4.79,6.85,6.85,0,0,0-4.41,8.09l11.29,47-2.1.8L79,468.06a8.42,8.42,0,0,0-10.84-4.24,7.6,7.6,0,0,0-3.86,9.91l0,.07,15.36,37.74,1.47,3.6-2.32-3.28L59.27,484.3a6.77,6.77,0,0,0-8.37-2.4l-.07,0A6.19,6.19,0,0,0,48,490.09l16.78,27.16s3.54,12.89,9.23,27.53,13.53,31.06,22.12,38.1c0,0,0,0,0,0,7.28,17.77,16.29,36.54,26.08,55.27.07.13.14.26.2.39C135,662.71,149,686.75,162.16,708.43l.21.34c5.17,8.49,10.22,16.61,15,24.23,14.18,22.43,26.34,40.53,33.38,50.83,10.32,16.86,25.69,32.34,46.1,27.53,27.28-6.41,64.69-48,86.88-75.31,4-4.89,7.45-9.34,10.3-13Zm-232-201A26,26,0,0,1,140,515.79a1.84,1.84,0,0,1,1.59,2,1.79,1.79,0,0,1-2,1.63h0c-.23,0-.45,0-.68,0a1.61,1.61,0,0,0-.22,0A22.76,22.76,0,0,0,124,524.73c-5.91,5-9.38,13.31-10.18,24.57a1.82,1.82,0,0,1-1.78,1.7h-.14a1.84,1.84,0,0,1-1.65-2C111.22,536.73,115,527.48,121.78,521.88Z"/><path class="cls-7" d="M475,249.71a84.23,84.23,0,0,0,12.38,11.12,72.2,72.2,0,0,0,6.93,4.43,58.62,58.62,0,0,0,7.37,3.58,59.89,59.89,0,0,0,7.74,2.7,67.08,67.08,0,0,0,8,1.79,84.8,84.8,0,0,0,16.61,1,50.12,50.12,0,0,1-16.9,1.36,55.3,55.3,0,0,1-31.23-13A50.16,50.16,0,0,1,475,249.71Z"/><path class="cls-7" d="M760.4,294.91a84.23,84.23,0,0,0-15.31,6.52,72.2,72.2,0,0,0-6.94,4.42,58.62,58.62,0,0,0-6.36,5.17,59.89,59.89,0,0,0-5.72,5.87,67.07,67.07,0,0,0-5,6.52,84.8,84.8,0,0,0-7.89,14.65,50.11,50.11,0,0,1,5.9-15.89,55.3,55.3,0,0,1,25-22.83A50.16,50.16,0,0,1,760.4,294.91Z"/><path class="cls-7" d="M453.46,235.73a47.83,47.83,0,0,0-6.51,5.34,38.57,38.57,0,0,0-2.77,3.08,30,30,0,0,0-2.4,3.35,30.58,30.58,0,0,0-2,3.59,35.63,35.63,0,0,0-1.62,3.81A48.26,48.26,0,0,0,436,263a23.92,23.92,0,0,1,.62-8.6,27.18,27.18,0,0,1,9.27-14.53A24,24,0,0,1,453.46,235.73Z"/><path class="cls-7" d="M806.46,248.73a47.83,47.83,0,0,0-6.51,5.34,38.58,38.58,0,0,0-2.77,3.08,30,30,0,0,0-2.4,3.35,30.58,30.58,0,0,0-2,3.59,35.63,35.63,0,0,0-1.62,3.81A48.26,48.26,0,0,0,789,276a23.92,23.92,0,0,1,.62-8.6,27.18,27.18,0,0,1,9.27-14.53A24,24,0,0,1,806.46,248.73Z"/><path class="cls-9" d="M962.62,306A502.54,502.54,0,1,0,1002,501,499.24,499.24,0,0,0,962.62,306Zm-30.75,408.7h0a480.66,480.66,0,0,1-42.72,70.08q-12.42,16.94-26.24,32.73A485.24,485.24,0,0,1,773.67,897q-7.87,5.46-16,10.57-11.88,7.53-24.22,14.37a477.29,477.29,0,0,1-69.13,31.45c-3.94,1.43-7.89,2.81-11.88,4.13a474.94,474.94,0,0,1-68.7,17.29A480.47,480.47,0,0,1,501,982q-24,0-47.34-2.32a474.84,474.84,0,0,1-74.35-13.28q-9-2.34-17.81-5a476.52,476.52,0,0,1-90.3-37.91q-9.91-5.4-19.53-11.25a483.92,483.92,0,0,1-90.14-70.77q-10.8-10.77-20.92-22.21A480.59,480.59,0,0,1,20,501C20,235.78,235.78,20,501,20S982,235.78,982,501A478,478,0,0,1,931.87,714.69Z"/></g></g></svg>