<svg xmlns="http://www.w3.org/2000/svg" xmlns:xlink="http://www.w3.org/1999/xlink" viewBox="0 0 240 175.31"><defs><linearGradient id="Degradado_sin_nombre_3" y1="95.01" x2="160.6" y2="95.01" gradientUnits="userSpaceOnUse"><stop offset="0" stop-color="#ae30f2"/><stop offset="1" stop-color="#fc1cff"/></linearGradient></defs><title>PagosS</title><g id="Capa_2" data-name="Capa 2"><g id="Capa_1-2" data-name="Capa 1"><circle cx="80.3" cy="95.01" r="80.3" style="fill:url(#Degradado_sin_nombre_3)"/><path d="M230.32,49.85H98.44a9.7,9.7,0,0,0-9.7,9.7h0v82.57a9.7,9.7,0,0,0,9.7,9.7H230.32a9.7,9.7,0,0,0,9.68-9.7V59.55A9.7,9.7,0,0,0,230.32,49.85Zm6.34,92.27a6.36,6.36,0,0,1-6.34,6.36H98.44a6.36,6.36,0,0,1-6.36-6.36h0V59.55a6.38,6.38,0,0,1,6.36-6.36H230.32a6.35,6.35,0,0,1,6.34,6.36Z"/><path d="M106.18,99.86h39.73a4.27,4.27,0,0,0,4.29-4.25V73.87a4.29,4.29,0,0,0-4.29-4.29H106.18a4.31,4.31,0,0,0-4.29,4.29V95.56a4.3,4.3,0,0,0,4.29,4.3Zm-1-26a1,1,0,0,1,1-1h39.73a1,1,0,0,1,1,1h0V95.56a1,1,0,0,1-1,1H106.18a1,1,0,0,1-1-1h0Z"/><path d="M167,116.14H105.2a3.31,3.31,0,0,0-3.31,3.31V129.8a3.31,3.31,0,0,0,3.31,3.31H167a3.31,3.31,0,0,0,3.31-3.31V119.45A3.31,3.31,0,0,0,167,116.14Zm0,13.63H105.22V119.48H167Z"/><path d="M222.29,116.14H182a3.31,3.31,0,0,0-3.25,3.31V129.8a3.31,3.31,0,0,0,3.29,3.31h40.24a3.31,3.31,0,0,0,3.32-3.31V119.45A3.31,3.31,0,0,0,222.29,116.14Zm0,13.63H182.05V119.45h40.27Z"/><path d="M195.25,99.7a17.54,17.54,0,0,0,9.58,2.91,17.8,17.8,0,1,0,0-35.59,17.6,17.6,0,0,0-9.58,2.83,17.8,17.8,0,1,0,0,29.94Zm9.58-29.43a14.46,14.46,0,0,1,0,28.92h0a14.41,14.41,0,0,1-6.8-1.71,17.81,17.81,0,0,0,.35-25.17c-.12-.12-.24-.23-.35-.35A14.28,14.28,0,0,1,204.83,70.27Zm-9.58,3.65a14.42,14.42,0,0,1,1.25,20.35,14.74,14.74,0,0,1-1.25,1.25A14.42,14.42,0,0,1,194,75.17,13.52,13.52,0,0,1,195.25,73.92Zm-24.07,10.9a14.48,14.48,0,0,1,14.46-14.46,14.28,14.28,0,0,1,6.8,1.69,17.8,17.8,0,0,0-.35,25.16c.12.12.23.24.35.35a14.31,14.31,0,0,1-6.8,1.72A14.49,14.49,0,0,1,171.18,84.82Z"/><path d="M149.37,37.94a18.66,18.66,0,0,0,15-7.52,18.73,18.73,0,1,0,0-22.38,18.71,18.71,0,1,0-15,29.9ZM179.31,2.1a17.13,17.13,0,1,1-17.09,17.15v0A17.14,17.14,0,0,1,179.31,2.1Zm-29.94,0a17.13,17.13,0,0,1,14,7.32,18.54,18.54,0,0,0,0,19.61,17.12,17.12,0,1,1-14-26.93Z" style="stroke:#1d1d1b;stroke-miterlimit:10"/><path d="M145.87,24.07a.79.79,0,0,0-.8-.79.79.79,0,0,0-.79.79,5.79,5.79,0,0,0,5,5.76v1.38a.8.8,0,0,0,1.6,0V29.83a5.81,5.81,0,0,0,0-11.52V9.82A4.24,4.24,0,0,1,154.35,14a.8.8,0,1,0,1.6,0,5.84,5.84,0,0,0-5-5.76V6.89a.79.79,0,0,0-.8-.79.79.79,0,0,0-.79.79V8.26a5.82,5.82,0,0,0,0,11.53v8.48A4.24,4.24,0,0,1,145.87,24.07Zm5-4.15a4.25,4.25,0,0,1,0,8.3Zm-5-5.89a4.23,4.23,0,0,1,3.42-4.14v8.28A4.24,4.24,0,0,1,145.87,14Z" style="stroke:#1d1d1b;stroke-miterlimit:10;stroke-width:0.25px"/><path d="M175.79,24.07a.79.79,0,0,0-.8-.79.79.79,0,0,0-.79.79,5.81,5.81,0,0,0,5,5.76v1.38a.79.79,0,0,0,.79.8.8.8,0,0,0,.8-.8V29.83a5.81,5.81,0,0,0,0-11.52V9.82A4.23,4.23,0,0,1,184.25,14a.8.8,0,1,0,1.6,0,5.84,5.84,0,0,0-5-5.76V6.89a.79.79,0,0,0-.8-.79.79.79,0,0,0-.79.79V8.26a5.82,5.82,0,0,0,0,11.53v8.48A4.24,4.24,0,0,1,175.79,24.07Zm5-4.15a4.25,4.25,0,0,1,0,8.3Zm-5-5.89a4.24,4.24,0,0,1,3.44-4.14v8.28A4.23,4.23,0,0,1,175.79,14Z" style="stroke:#1d1d1b;stroke-miterlimit:10;stroke-width:0.25px"/></g></g></svg>