<svg xmlns="http://www.w3.org/2000/svg" xmlns:xlink="http://www.w3.org/1999/xlink" viewBox="0 0 240 162.27"><defs><linearGradient id="Degradado_sin_nombre_3" y1="81.13" x2="162.27" y2="81.13" gradientUnits="userSpaceOnUse"><stop offset="0" stop-color="#ae30f2"/><stop offset="1" stop-color="#fc1cff"/></linearGradient></defs><title>Productos</title><g id="Capa_2" data-name="Capa 2"><g id="Capa_1-2" data-name="Capa 1"><circle cx="81.13" cy="81.13" r="81.13" style="fill:url(#Degradado_sin_nombre_3)"/><path d="M223.29,22,198.23,45.51V43.56a5.79,5.79,0,0,0-6-5.59h-2.06V34.71a7.9,7.9,0,0,0-8.14-7.62H173a7.9,7.9,0,0,0-8.14,7.62V38h-2.06a5.79,5.79,0,0,0-6,5.59V69.9h-1.49a18,18,0,0,0-4.69-13.81c-3.89-4-9.24-5-14.85-3.67a19.15,19.15,0,0,1-2.61.41V51.45a12.94,12.94,0,0,0,2.13.18,12.8,12.8,0,0,0,12.07-8,1.43,1.43,0,0,0-.08-1.16,1.58,1.58,0,0,0-.93-.78,13.4,13.4,0,0,0-9.73.53,12.78,12.78,0,0,0-3.46,2.34v-3a1.63,1.63,0,0,0-3.25,0V52.83a19.2,19.2,0,0,1-2.6-.39c-5.53-1.36-11-.34-14.86,3.65a18,18,0,0,0-4.69,13.81h-2A5.31,5.31,0,0,0,100.24,75V87.89A5.31,5.31,0,0,0,105.72,93h1.85l13.07,42.32a11.22,11.22,0,0,0,10.81,7.59H208a11.23,11.23,0,0,0,10.82-7.59L231.92,93h1.86a5.31,5.31,0,0,0,5.48-5.11V75a5.31,5.31,0,0,0-5.48-5.11h-3.7V58.23a5.79,5.79,0,0,0-6-5.59h-5.81L237.12,35a8.74,8.74,0,0,0,0-12.95A10.26,10.26,0,0,0,223.29,22ZM138,45h0a9.87,9.87,0,0,1,5.49-.8,9.75,9.75,0,0,1-9.58,4.33A9.14,9.14,0,0,1,138,45Zm30.07-10.24A4.74,4.74,0,0,1,173,30.14h9.09a4.74,4.74,0,0,1,4.88,4.57V38H168.08Zm-8,8.85A2.64,2.64,0,0,1,162.76,41h29.49A2.64,2.64,0,0,1,195,43.56v5L172.17,69.9H160ZM114.83,58.15c3.23-3.31,7.65-3.74,11.65-2.76a21.56,21.56,0,0,0,10.07,0c5.31-1.24,9,0,11.65,2.78A15.2,15.2,0,0,1,152,69.9H111A15.25,15.25,0,0,1,114.83,58.15Zm100.9,76.32a8,8,0,0,1-7.69,5.39H131.45a8,8,0,0,1-7.68-5.39L111,93H228.53ZM233.78,73A2.15,2.15,0,0,1,236,75V87.89A2.15,2.15,0,0,1,233.78,90H105.72a2.14,2.14,0,0,1-2.22-2.06V75A2.15,2.15,0,0,1,105.72,73h63.19l-.31.3a8.75,8.75,0,0,0,0,13,10.28,10.28,0,0,0,13.84,0L196.59,73ZM224.1,55.69a2.64,2.64,0,0,1,2.72,2.54V69.9h-27L215,55.69Zm10.73-22.85L180.13,84a6.85,6.85,0,0,1-9.23,0,5.85,5.85,0,0,1,0-8.64l54.7-51.2a6.82,6.82,0,0,1,9.24,0A5.83,5.83,0,0,1,234.83,32.84Z"/></g></g></svg>